{"title":"Edge Of Darkness 2010 Cam XviD.avi","uid":5323292,"size":645007367,"categoryP":"video","categoryS":"movies","magnet":"?xt=urn:btih:651a00ae2c1b0a76fbc57f0cc786611f5bd8d03f&amp;dn=Edge+Of+Darkness+2010+Cam+XviD.avi&amp;tr=udp%3A%2F%2Ftracker.openbittorrent.com%3A80&amp;tr=udp%3A%2F%2Fopen.demonii.com%3A1337&amp;tr=udp%3A%2F%2Ftracker.coppersurfer.tk%3A6969&amp;tr=udp%3A%2F%2Fexodus.desync.com%3A6969","seeders":1,"leechers":0,"uploader":"thenoobish","files":3,"time":1264896629,"description":"   General\n      Format : AVI\n      Format/Info : Audio Video Interleave\n      File size : 615 MiB\n      Duration : 1h 47mn\n      Overall bit rate : 799 Kbps\n      Writing application : MEncoder 1.0rc2-4.2.4\n      Writing library : MPlayer\n   Video\n      Format : MPEG-4 Visual\n      Format profile : Simple@L1\n      Format settings, BVOP : No\n      Format settings, QPel : No\n      Format settings, GMC : No warppoints\n      Format settings, Matrix : Default\n      Codec ID : XVID\n      Codec ID/Hint : XviD\n      Duration : 1h 47mn\n      Bit rate : 658 Kbps\n      Width : 480 pixels\n      Height : 272 pixels\n      Display aspect ratio : 16/9\n      Frame rate : 29.970 fps\n      Resolution : 24 bits\n      Colorimetry : 4:2:0\n      Scan type : Progressive\n      Bits/(Pixel*Frame) : 0.168\n      Stream size : 506 MiB (82%)\n      Writing library : Lavc51.44.0\n   Audio\n      Format : MPEG Audio\n      Format version : Version 1\n      Format profile : Layer 3\n      Codec ID : 55\n      Codec ID/Hint : MP3\n      Duration : 1h 47mn\n      Bit rate mode : Constant\n      Bit rate : 128 Kbps\n      Channel(s) : 2 channels\n      Sampling rate : 44.1 KHz\n      Resolution : 16 bits\n      Stream size : 98.5 MiB (16%)\n      Alignment : Aligned on interleaves\n      Interleave, duration : 26 ms (0.78 video frame)\n      Interleave, preload duration : 522 ms","torrent":{"xt":"urn:btih:651a00ae2c1b0a76fbc57f0cc786611f5bd8d03f","amp;dn":"Edge+Of+Darkness+2010+Cam+XviD.avi","amp;tr":["udp%3A%2F%2Ftracker.openbittorrent.com%3A80","udp%3A%2F%2Fopen.demonii.com%3A1337","udp%3A%2F%2Ftracker.coppersurfer.tk%3A6969","udp%3A%2F%2Fexodus.desync.com%3A6969"],"infoHash":"651a00ae2c1b0a76fbc57f0cc786611f5bd8d03f","infoHashBuffer":{"type":"Buffer","data":[101,26,0,174,44,27,10,118,251,197,127,12,199,134,97,31,91,216,208,63]},"announce":[],"urlList":[]}}